<svg xmlns="http://www.w3.org/2000/svg" width="1000" height="452" viewBox="0 0 1000 452" role="img" aria-labelledby="title desc">
<title id="title">Ordered observations: First separation duration</title><desc id="desc">Audited reference-class plot for analysis_824fccc4009d433d</desc>
<rect width="100%" height="100%" fill="#fff"/><g font-family="-apple-system,BlinkMacSystemFont,Segoe UI,sans-serif" fill="#202522">
<text x="40" y="36" font-size="22" font-weight="600">Ordered observations: First separation duration</text>
<text x="40" y="58" font-size="14" fill="#5f6963">metric: first_separation_days v1</text>
<line x1="250" y1="85" x2="940" y2="85" stroke="#e3e8e5"/><text x="238" y="90" text-anchor="end" font-size="14">eBay / PayPal</text><circle cx="281.4" cy="85" r="6" fill="#1f5b49"/><text x="291.4" y="90" font-size="13">291</text><line x1="250" y1="119" x2="940" y2="119" stroke="#e3e8e5"/><text x="238" y="124" text-anchor="end" font-size="14">Hewlett-Packard / HPE</text><circle cx="475.0" cy="119" r="6" fill="#1f5b49"/><text x="485.0" y="124" font-size="13">391</text><line x1="250" y1="153" x2="940" y2="153" stroke="#e3e8e5"/><text x="238" y="158" text-anchor="end" font-size="14">IBM / Kyndryl</text><circle cx="476.9" cy="153" r="6" fill="#1f5b49"/><text x="486.9" y="158" font-size="13">392</text><line x1="250" y1="187" x2="940" y2="187" stroke="#e3e8e5"/><text x="238" y="192" text-anchor="end" font-size="14">Alcoa / Arconic</text><circle cx="492.4" cy="187" r="6" fill="#1f5b49"/><text x="502.4" y="192" font-size="13">400</text><line x1="250" y1="221" x2="940" y2="221" stroke="#e3e8e5"/><text x="238" y="226" text-anchor="end" font-size="14">General Electric three-way separation</text><circle cx="533.0" cy="221" r="6" fill="#1f5b49"/><text x="543.0" y="226" font-size="13">421</text><line x1="250" y1="255" x2="940" y2="255" stroke="#e3e8e5"/><text x="238" y="260" text-anchor="end" font-size="14">Kellogg / Kellanova and WK Kellogg</text><circle cx="624.0" cy="255" r="6" fill="#1f5b49"/><text x="634.0" y="260" font-size="13">468</text><line x1="250" y1="289" x2="940" y2="289" stroke="#e3e8e5"/><text x="238" y="294" text-anchor="end" font-size="14">United Technologies / Carrier and Otis</text><circle cx="674.4" cy="289" r="6" fill="#1f5b49"/><text x="684.4" y="294" font-size="13">494</text><line x1="250" y1="323" x2="940" y2="323" stroke="#e3e8e5"/><text x="238" y="328" text-anchor="end" font-size="14">3M / Solventum</text><circle cx="908.6" cy="323" r="6" fill="#1f5b49"/><text x="918.6" y="328" font-size="13">615</text><line x1="778.9" y1="60" x2="778.9" y2="335" stroke="#c24d2c" stroke-width="2" stroke-dasharray="7 5"/><text x="784.9" y="53" fill="#c24d2c" font-size="14">target: 548</text>
<text x="40" y="427" font-size="12" fill="#5f6963">n=8 · missing=0 · dependence: not assessed · quantiles: nearest_rank · analysis_824fccc4009d433d</text></g></svg>